<svg xmlns="http://www.w3.org/2000/svg" x="0px" y="0px" viewBox="0 0 1300 1300" width="20" height="20">
    <g>
        <path
            d="M865.3,939.3H286.6c-40.8,0-74-33.2-74-74V286.6c0-40.8,33.2-74,74-74h578.7c40.8,0,74,33.2,74,74v578.7   C939.3,906.1,906.1,939.3,865.3,939.3z M286.6,232.6c-29.8,0-54,24.2-54,54v578.7c0,29.8,24.2,54,54,54h578.7c29.8,0,54-24.2,54-54   V286.6c0-29.8-24.2-54-54-54H286.6z" />
        <rect x="565.9" y="411.7" width="20" height="328.5" />
        <rect x="411.7" y="565.9" width="328.5" height="20" />
        <path
            d="M158.7,811.4c-40.8,0-74-33.2-74-74V158.7c0-40.8,33.2-74,74-74h578.7c40.8,0,74,33.2,74,74h-20c0-29.8-24.2-54-54-54   H158.7c-29.8,0-54,24.2-54,54v578.7c0,29.8,24.2,54,54,54V811.4z" />
    </g>
</svg>