<svg xmlns="http://www.w3.org/2000/svg" x="0px" y="0px" viewBox="0 0 2500 2500" height="50" width="50">
    <g>
        <path
            d="M807.8,939.5H216.2c-34.8,0-63.2-28.4-63.2-63.2V280.2c0-5.5,4.5-10,10-10h698c5.5,0,10,4.5,10,10v596.1   C871,911.1,842.6,939.5,807.8,939.5z M173,290.2v586.1c0,23.8,19.4,43.2,43.2,43.2h591.6c23.8,0,43.2-19.4,43.2-43.2V290.2H173z" />
        <path
            d="M913.9,290.2H110.1c-5.5,0-10-4.5-10-10v-68.6c0-28.1,22.9-51,51-51h167.6l23.9-57.6c4.7-11.2,15.5-18.5,27.6-18.5h283.6   c12.2,0,23,7.3,27.6,18.5l23.9,57.6h167.6c28,0.1,50.8,23,50.8,51v68.6C923.9,285.7,919.4,290.2,913.9,290.2z M120.1,270.2h783.8   v-58.6c0-17-13.8-30.9-30.8-31H698.8c-4,0-7.7-2.4-9.2-6.2l-26.5-63.8c-1.5-3.7-5.1-6.1-9.2-6.1H370.3c-4,0-7.6,2.4-9.2,6.2   l-26.5,63.8c-1.5,3.7-5.2,6.2-9.2,6.2H151.1c-17.1,0-31,13.9-31,31V270.2z" />
        <rect x="324.4" y="465.4" width="20" height="278.8" />
        <rect x="679.6" y="465.4" width="20" height="278.8" />
        <rect x="502" y="405.4" width="20" height="398.8" />
    </g>
</svg>